<?xml version="1.0" encoding="UTF-8"?>
<svg version="1.1" xmlns="http://www.w3.org/2000/svg" width="1500" height="250">
<path d="M0 0 C0.33 0 0.66 0 1 0 C1.29390625 1.34578125 1.29390625 1.34578125 1.59375 2.71875 C8.48935902 31.49008418 28.28148363 53.36433574 48.625 73.875 C49.48343506 74.74286133 50.34187012 75.61072266 51.22631836 76.50488281 C57.17693441 82.42545383 63.45254786 87.7552303 70 93 C71.06290168 93.89835205 72.12146629 94.80191553 73.171875 95.71484375 C85.28147304 106.15478509 100.75770184 118.51768651 117 121 C117 121.66 117 122.32 117 123 C116.45214844 123.12375 115.90429688 123.2475 115.33984375 123.375 C81.24363512 132.24555834 45.43083705 168.68060487 25 196 C24.60264648 196.52625977 24.20529297 197.05251953 23.79589844 197.59472656 C13.1438936 211.77832472 4.18535985 226.26257517 1 244 C-1.36985822 241.63014178 -1.55790233 240.28921518 -2.3125 237.0625 C-7.87435738 215.86136048 -21.6657702 198.47950988 -36.38671875 182.80078125 C-38.79208732 180.22283018 -41.11745317 177.59196799 -43.4375 174.9375 C-47.69627958 170.19200275 -52.3029862 165.892332 -57.046875 161.64453125 C-58.84436203 160.03487686 -60.62926913 158.41083135 -62.390625 156.76171875 C-77.35295068 142.84268449 -96.35030248 126.76766411 -117 123 C-117 122.34 -117 121.68 -117 121 C-115.83597656 120.70609375 -115.83597656 120.70609375 -114.6484375 120.40625 C-100.54584061 116.5019511 -89.37789888 109.04954304 -78 100 C-77.08605469 99.27941406 -76.17210937 98.55882813 -75.23046875 97.81640625 C-68.76458017 92.62704503 -62.6387965 87.10696142 -56.57666016 81.45898438 C-54.95136853 79.95499819 -53.31169963 78.46817273 -51.66796875 76.984375 C-45.03441391 70.97708169 -38.81687254 64.81942149 -33 58 C-32.18917969 57.06542969 -31.37835938 56.13085938 -30.54296875 55.16796875 C-24.49810992 48.0831342 -19.12564577 40.77241468 -14 33 C-13.44441406 32.18144531 -12.88882813 31.36289062 -12.31640625 30.51953125 C-6.34317751 21.25714798 -2.90648669 10.57028887 0 0 Z " fill="#1F5C7E" transform="translate(118,3)"/>
<path d="M0 0 C3.76422205 3.46986346 5.98455702 7.74418507 8.1875 12.3125 C8.6 11.80460937 9.0125 11.29671875 9.4375 10.7734375 C17.84848845 0.74783966 27.89033389 -6.40892634 41.1875 -7.6875 C51.23080126 -7.81516908 60.78139065 -4.669301 68.1875 2.3125 C72.97127518 8.6809007 74.49291236 15.43035451 74.41455078 23.24560547 C74.41484283 24.0170137 74.41513489 24.78842194 74.41543579 25.58320618 C74.41405011 28.1154838 74.39852512 30.64746172 74.3828125 33.1796875 C74.37907966 34.94230997 74.37623396 36.70493452 74.37423706 38.46755981 C74.36662198 43.09372749 74.34699182 47.71976843 74.3248291 52.34588623 C74.30432481 57.07171922 74.29522556 61.7975728 74.28515625 66.5234375 C74.26374386 75.78651384 74.22963366 85.04949636 74.1875 94.3125 C75.19852783 94.40229126 75.19852783 94.40229126 76.22998047 94.49389648 C77.56633545 94.61873413 77.56633545 94.61873413 78.9296875 94.74609375 C79.80995605 94.82657959 80.69022461 94.90706543 81.59716797 94.98999023 C84.9594895 95.40861669 87.97089122 96.26360583 91.1875 97.3125 C91.1875 99.9525 91.1875 102.5925 91.1875 105.3125 C87.78978388 106.08454466 84.71011714 106.42052942 81.22949219 106.35009766 C80.27210144 106.33322906 79.31471069 106.31636047 78.32830811 106.29898071 C77.30731018 106.2750827 76.28631226 106.25118469 75.234375 106.2265625 C73.65042938 106.19470352 73.65042938 106.19470352 72.03448486 106.16220093 C69.80873973 106.11603449 67.58305023 106.06711438 65.35742188 106.015625 C61.93631494 105.93747293 58.51511447 105.87048297 55.09375 105.8046875 C52.93227732 105.75847858 50.77081829 105.71162609 48.609375 105.6640625 C47.58028015 105.64421295 46.5511853 105.6243634 45.49090576 105.60391235 C44.54612366 105.58073944 43.60134155 105.55756653 42.62792969 105.53369141 C41.79251648 105.51513092 40.95710327 105.49657043 40.09637451 105.47744751 C38.1875 105.3125 38.1875 105.3125 37.1875 104.3125 C36.9375 101.375 36.9375 101.375 37.1875 98.3125 C40.82469605 95.88770264 43.04453482 95.92587423 47.375 95.6875 C49.28345703 95.57535156 49.28345703 95.57535156 51.23046875 95.4609375 C52.20628906 95.41195312 53.18210937 95.36296875 54.1875 95.3125 C54.14932244 85.83655484 54.08978675 76.36104689 54.00359726 66.88541603 C53.9642261 62.48463152 53.93198717 58.084044 53.91650391 53.68310547 C53.90126857 49.42938917 53.86670271 45.17621481 53.81919098 40.92274094 C53.80444764 39.30664172 53.79646306 37.6904651 53.79561615 36.07429886 C53.9158328 21.19765683 53.9158328 21.19765683 46.625 8.75 C41.90344809 5.96549503 37.53882211 5.57978051 32.1875 6.3125 C22.13657811 9.94954531 13.91287839 16.6502965 9.1875 26.3125 C8.20556992 31.60506418 8.22926226 36.80667965 8.28515625 42.1640625 C8.27575447 43.67436869 8.26328643 45.1846586 8.24790955 46.69491577 C8.21588532 50.63744006 8.22505112 54.57879296 8.24328613 58.5213623 C8.25450114 62.5573372 8.22608582 66.5930213 8.20117188 70.62890625 C8.15819355 78.52368089 8.15880003 86.41766178 8.1875 94.3125 C9.19852783 94.40229126 9.19852783 94.40229126 10.22998047 94.49389648 C11.56633545 94.61873413 11.56633545 94.61873413 12.9296875 94.74609375 C13.80995605 94.82657959 14.69022461 94.90706543 15.59716797 94.98999023 C18.9594895 95.40861669 21.97089122 96.26360583 25.1875 97.3125 C25.1875 99.9525 25.1875 102.5925 25.1875 105.3125 C21.78071755 106.08849897 18.70356194 106.41710305 15.21362305 106.33422852 C14.25300461 106.31413223 13.29238617 106.29403595 12.30265808 106.27333069 C11.2785231 106.24629562 10.25438812 106.21926056 9.19921875 106.19140625 C8.14088333 106.16779526 7.08254791 106.14418427 5.99214172 106.11985779 C2.61961766 106.04342775 -0.75266474 105.95931439 -4.125 105.875 C-6.41470181 105.82175865 -8.70441533 105.76901839 -10.99414062 105.71679688 C-16.60040917 105.5878406 -22.20649895 105.45257948 -27.8125 105.3125 C-28.5 102.5 -28.5 102.5 -28.8125 99.3125 C-27.78125 97.65625 -27.78125 97.65625 -25.8125 96.3125 C-22.45703125 95.80078125 -22.45703125 95.80078125 -18.625 95.625 C-17.35269531 95.55925781 -16.08039063 95.49351562 -14.76953125 95.42578125 C-13.30580078 95.36970703 -13.30580078 95.36970703 -11.8125 95.3125 C-11.76584954 87.06208627 -11.73046657 78.81172905 -11.70887566 70.5612154 C-11.69850525 66.72883202 -11.6844718 62.89653988 -11.66162109 59.06420898 C-11.63964896 55.35537527 -11.6278809 51.64662846 -11.62274551 47.9377346 C-11.61909293 46.53338442 -11.61196267 45.12903818 -11.60103989 43.72472572 C-11.09810193 26.79232605 -11.09810193 26.79232605 -16.8125 11.3125 C-21.51177669 6.96566906 -25.19038665 5.99469135 -31.4140625 6.10546875 C-40.29754489 6.87228401 -45.82989224 12.05362913 -51.69654846 18.32723999 C-57.72570505 25.80882542 -57.81068294 32.9779725 -57.71484375 42.1640625 C-57.72424553 43.67436869 -57.73671357 45.1846586 -57.75209045 46.69491577 C-57.78411468 50.63744006 -57.77494888 54.57879296 -57.75671387 58.5213623 C-57.74549886 62.5573372 -57.77391418 66.5930213 -57.79882812 70.62890625 C-57.84180645 78.52368089 -57.84119997 86.41766178 -57.8125 94.3125 C-56.90866577 94.40229126 -56.90866577 94.40229126 -55.98657227 94.49389648 C-54.78859009 94.61873413 -54.78859009 94.61873413 -53.56640625 94.74609375 C-52.7782251 94.82657959 -51.99004395 94.90706543 -51.17797852 94.98999023 C-47.91901828 95.43431746 -44.94265144 96.3135155 -41.8125 97.3125 C-41.8125 100.2825 -41.8125 103.2525 -41.8125 106.3125 C-59.3025 105.9825 -76.7925 105.6525 -94.8125 105.3125 C-95.73788169 101.61097322 -95.89424162 100.67791838 -94.8125 97.3125 C-93.46082143 96.96921655 -92.10595725 96.63847303 -90.75 96.3125 C-89.99589844 96.126875 -89.24179687 95.94125 -88.46484375 95.75 C-85.8125 95.3125 -85.8125 95.3125 -78.8125 95.3125 C-78.8125 66.2725 -78.8125 37.2325 -78.8125 7.3125 C-83.1025 6.9825 -87.3925 6.6525 -91.8125 6.3125 C-92.8025 5.9825 -93.7925 5.6525 -94.8125 5.3125 C-94.8125 2.6725 -94.8125 0.0325 -94.8125 -2.6875 C-90.60794781 -4.7897761 -85.37296522 -4.70133462 -80.75 -5.25 C-79.64205078 -5.38857422 -78.53410156 -5.52714844 -77.39257812 -5.66992188 C-71.15473923 -6.41875765 -65.09589056 -6.94249712 -58.8125 -6.6875 C-56.69324396 -4.56824396 -57.39418983 -0.0678907 -57.25 2.875 C-57.20681641 3.68130859 -57.16363281 4.48761719 -57.11914062 5.31835938 C-57.01274738 7.31618805 -56.91209112 9.3143207 -56.8125 11.3125 C-56.43432129 10.83675537 -56.05614258 10.36101074 -55.66650391 9.87084961 C-48.4020354 0.83938362 -38.96207206 -5.47658499 -27.44921875 -7.43359375 C-17.55363906 -8.38650142 -7.9168813 -6.15567444 0 0 Z " fill="#101111" transform="translate(678.8125,61.6875)"/>
<path d="M0 0 C16.17 0 32.34 0 49 0 C49 2.97 49 5.94 49 9 C44.05 9.66 39.1 10.32 34 11 C34.62044189 12.76520996 35.24088379 14.53041992 35.88012695 16.34912109 C37.9415442 22.2157438 40.00084601 28.08310572 42.05874348 33.95096397 C43.30513971 37.50467663 44.55235351 41.05809769 45.80151367 44.61083984 C47.00951834 48.04663164 48.21527358 51.48320553 49.41954613 54.92030716 C49.87680066 56.22413196 50.33483219 57.52768456 50.79369545 58.83094406 C53.37785774 66.17223751 55.85709989 73.51682461 58 81 C59.75522219 78.36716671 60.63850934 76.4644626 61.62890625 73.51953125 C61.93787842 72.61428711 62.24685059 71.70904297 62.56518555 70.77636719 C62.89429932 69.79829102 63.22341309 68.82021484 63.5625 67.8125 C65.75455679 61.30824276 68.00877637 54.87181261 70.6328125 48.52734375 C71.05876709 47.47635498 71.48472168 46.42536621 71.92358398 45.3425293 C72.74635298 43.3293914 73.59370701 41.32607058 74.46899414 39.33520508 C77.45939793 31.9160486 76.66209353 27.39666962 74 20 C73.67177554 18.50336212 73.35610574 17.00381246 73.0625 15.5 C72.45483983 13.52161512 72.45483983 13.52161512 71 12 C67.0765854 10.44257263 63.13838153 9.74737935 59 9 C58.505 8.505 58.505 8.505 58 8 C58 5.36 58 2.72 58 0 C74.5 0 91 0 108 0 C108 2.97 108 5.94 108 9 C100.575 10.485 100.575 10.485 93 12 C95.29167197 18.75497043 97.58462353 25.50950479 99.87866211 32.26367188 C100.65568982 34.55196961 101.43239323 36.84037749 102.20874023 39.12890625 C107.06571935 53.44553507 111.97339324 67.74198202 117 82 C117.19259399 81.40650757 117.38518799 80.81301514 117.58361816 80.20153809 C122.81647711 64.13921655 128.51267924 48.29489153 134.5 32.5 C135.3311488 30.29703328 136.16187955 28.09390878 136.9921875 25.890625 C138.99000806 20.59193357 140.99285739 15.29516681 143 10 C141.72769531 10.00451172 140.45539063 10.00902344 139.14453125 10.01367188 C136.37932649 10.02347757 133.73415149 9.95569191 131 9.5 C130.01 9.335 129.02 9.17 128 9 C126.875 2.25 126.875 2.25 128 0 C133.96313166 -0.02464574 139.92623395 -0.042834 145.8894043 -0.05493164 C147.91968298 -0.05997278 149.94995802 -0.06680557 151.98022461 -0.07543945 C154.89177347 -0.08751467 157.8032745 -0.09323034 160.71484375 -0.09765625 C162.08514992 -0.10539818 162.08514992 -0.10539818 163.48313904 -0.11329651 C165.65575427 -0.11349168 167.82827296 -0.06211805 170 0 C171 1 171 1 171.0625 4.5625 C171.041875 5.696875 171.02125 6.83125 171 8 C165.71277995 10.08706054 160.60527711 10.55313769 155 11 C154.85957275 11.52247314 154.71914551 12.04494629 154.57446289 12.58325195 C152.09491164 21.32683674 148.73053115 29.72809841 145.4375 38.1875 C144.4429944 40.75472233 143.44986198 43.32247335 142.45677185 45.89024353 C141.75453279 47.705727 141.05185695 49.52104157 140.34877014 51.3361969 C137.59864766 58.43913037 134.86930095 65.54987391 132.1484375 72.6640625 C131.74482498 73.71932632 131.34121246 74.77459015 130.92536926 75.86183167 C129.32949019 80.03531343 127.73412387 84.20899076 126.13937378 88.38290405 C125.02718141 91.29328717 123.91404902 94.20330935 122.80078125 97.11328125 C122.4752829 97.96600616 122.14978455 98.81873108 121.81442261 99.69729614 C121.19398425 101.31847382 120.56729815 102.93727719 119.93374634 104.55337524 C119.27099816 106.28992406 118.64701398 108.04148855 118.05038452 109.80184937 C117.72849152 110.71052765 117.40659851 111.61920593 117.07495117 112.55541992 C116.7960051 113.38273117 116.51705902 114.21004242 116.22966003 115.06242371 C115 117 115 117 112.37031555 117.77778625 C111.19700935 117.88778206 111.19700935 117.88778206 110 118 C106.89739401 111.32612094 104.3027097 104.54061341 101.84765625 97.60546875 C101.4656456 96.53686111 101.08363495 95.46825348 100.69004822 94.36726379 C99.47758569 90.97516879 98.26952982 87.58153163 97.0625 84.1875 C95.4737155 79.72133896 93.88060146 75.25675406 92.28515625 70.79296875 C91.92978287 69.7894487 91.57440948 68.78592865 91.20826721 67.7519989 C88.69980522 60.73377141 85.92470175 53.85480965 83 47 C82.79225952 47.55471481 82.58451904 48.10942963 82.3704834 48.68095398 C80.16403624 54.57231672 77.95674984 60.46336457 75.74902344 66.35424805 C74.93045846 68.53874133 74.11209186 70.72330896 73.29394531 72.90795898 C69.04031548 84.2657777 64.77770978 95.62006756 60.46875 106.95703125 C60.1322644 107.84412277 59.79577881 108.73121429 59.44909668 109.64518738 C59.14040649 110.45554947 58.83171631 111.26591156 58.51367188 112.10083008 C58.24421753 112.80903397 57.97476318 113.51723785 57.69714355 114.24690247 C57 116 57 116 56 118 C54.35 118 52.7 118 51 118 C41.51699167 92.46711138 32.23472651 66.86341719 23.01873207 41.23320389 C22.07520722 38.60950151 21.13109732 35.98600981 20.1869545 33.36252975 C19.53162552 31.54057854 18.87735646 29.7182462 18.22311401 27.89590454 C17.82754303 26.79644501 17.43197205 25.69698547 17.02441406 24.56420898 C16.68025452 23.60626938 16.33609497 22.64832977 15.98150635 21.66136169 C15.32131245 19.87124109 14.61747636 18.09667986 13.87347412 16.33973694 C13 14 13 14 13 11 C12.39671875 10.93941406 11.7934375 10.87882812 11.171875 10.81640625 C10.37265625 10.73261719 9.5734375 10.64882812 8.75 10.5625 C7.56664062 10.44068359 7.56664062 10.44068359 6.359375 10.31640625 C4.17635361 10.02365007 2.1226818 9.57935581 0 9 C-1.125 2.25 -1.125 2.25 0 0 Z " fill="#101111" transform="translate(1005,58)"/>
<path d="M0 0 C1.89826854 4.01652186 2.243969 7.20210582 2.22705078 11.6262207 C2.22734283 12.27068649 2.22763489 12.91515228 2.22793579 13.57914734 C2.22655005 15.69483221 2.21102507 17.81015842 2.1953125 19.92578125 C2.19157967 21.39836942 2.18873397 22.87096009 2.18673706 24.34355164 C2.17912183 28.20857672 2.15949163 32.07345013 2.1373291 35.93841553 C2.11682508 39.88665719 2.10772562 43.8349235 2.09765625 47.78320312 C2.0762436 55.52220437 2.04213333 63.26108088 2 71 C2.66169189 70.31292969 3.32338379 69.62585938 4.00512695 68.91796875 C4.88644287 68.01691406 5.76775879 67.11585937 6.67578125 66.1875 C7.54372314 65.29417969 8.41166504 64.40085937 9.3059082 63.48046875 C17.95128714 55.52060921 28.78597179 53.4997399 40.20703125 53.69140625 C49.42255833 54.44117622 56.94476919 57.93308443 63 65 C67.12232814 71.47794422 67.12608102 79.23395652 67.11352539 86.67944336 C67.11367142 87.41198334 67.11381744 88.14452332 67.1139679 88.89926147 C67.11327686 91.29615343 67.10552276 93.69296554 67.09765625 96.08984375 C67.09578919 97.76135719 67.09436665 99.43287119 67.09336853 101.10438538 C67.08956603 105.48554009 67.07975529 109.86666121 67.06866455 114.24780273 C67.0584015 118.72574408 67.05386046 123.20369089 67.04882812 127.68164062 C67.03813083 136.45444243 67.02108187 145.22721703 67 154 C67.60255615 154.05986084 68.2051123 154.11972168 68.82592773 154.18139648 C69.62458252 154.26462158 70.4232373 154.34784668 71.24609375 154.43359375 C72.0342749 154.51407959 72.82245605 154.59456543 73.63452148 154.67749023 C76.89348172 155.12181746 79.86984856 156.0010155 83 157 C83 159.97 83 162.94 83 166 C65.51 165.67 48.02 165.34 30 165 C30 162.36 30 159.72 30 157 C31.35167857 156.65671655 32.70654275 156.32597303 34.0625 156 C34.81660156 155.814375 35.57070313 155.62875 36.34765625 155.4375 C39.58964851 154.90273839 42.71904883 154.97309317 46 155 C46.04655583 146.06312892 46.08198643 137.12630027 46.10362434 128.18933392 C46.11401493 124.03853222 46.12808667 119.88781414 46.15087891 115.73706055 C46.17277727 111.72349551 46.18460406 107.71001037 46.18975449 103.69639015 C46.19341999 102.1731624 46.20057683 100.6499385 46.21146011 99.12674522 C46.3773328 83.67014806 46.3773328 83.67014806 42 69 C36.84078034 66.22195865 30.70463852 66.25490436 25 67 C17.99603994 69.31058476 11.98820642 73.60901914 7 79 C6.15066895 79.87615967 5.30133789 80.75231934 4.42626953 81.6550293 C0.3592982 87.44866499 1.27218845 94.77359127 1.29296875 101.55859375 C1.27984029 103.07318601 1.26453254 104.58776081 1.24714661 106.10231018 C1.20741699 110.06925761 1.19711405 114.03574577 1.19311523 118.00286865 C1.18376088 122.0586937 1.14633309 126.11425146 1.11132812 130.16992188 C1.04687515 138.11328635 1.01353452 146.05638627 1 154 C1.60255615 154.05986084 2.2051123 154.11972168 2.82592773 154.18139648 C4.02390991 154.30623413 4.02390991 154.30623413 5.24609375 154.43359375 C6.0342749 154.51407959 6.82245605 154.59456543 7.63452148 154.67749023 C10.89348172 155.12181746 13.86984856 156.0010155 17 157 C17 159.97 17 162.94 17 166 C-0.49 165.67 -17.98 165.34 -36 165 C-36.92538169 161.29847322 -37.08174162 160.36541838 -36 157 C-34.64832143 156.65671655 -33.29345725 156.32597303 -31.9375 156 C-31.18339844 155.814375 -30.42929687 155.62875 -29.65234375 155.4375 C-27 155 -27 155 -20 155 C-20 108.47 -20 61.94 -20 14 C-24.95 13.67 -29.9 13.34 -35 13 C-36 12 -36 12 -36.09765625 10.15234375 C-36.06510417 8.1015625 -36.03255208 6.05078125 -36 4 C-31.99899678 3.42410672 -27.99712849 2.85468783 -23.99438477 2.29101562 C-22.63541375 2.0987434 -21.276683 1.90476437 -19.91821289 1.70898438 C-17.95524539 1.42639779 -15.99129834 1.15064275 -14.02734375 0.875 C-12.25991821 0.62363281 -12.25991821 0.62363281 -10.45678711 0.3671875 C-6.94385604 -0.00596373 -3.52987232 -0.06306863 0 0 Z " fill="#101111" transform="translate(369,2)"/>
<path d="M0 0 C8.26940854 8.29947911 9.02026183 18.60344013 9.05949879 29.76701736 C9.05060677 32.16254801 9.02755702 34.55769849 9.00390625 36.953125 C8.99829794 38.63990905 8.99403369 40.32669805 8.99104309 42.01348877 C8.97969139 46.41278015 8.95030985 50.81176548 8.91693115 55.2109375 C8.88601935 59.71610374 8.87249304 64.22132035 8.85742188 68.7265625 C8.82542894 77.53659741 8.77435265 86.34638544 8.7109375 95.15625 C9.61477173 95.24604126 9.61477173 95.24604126 10.53686523 95.33764648 C11.33552002 95.42087158 12.1341748 95.50409668 12.95703125 95.58984375 C13.7452124 95.67032959 14.53339355 95.75081543 15.34545898 95.83374023 C18.60441922 96.27806746 21.58078606 97.1572655 24.7109375 98.15625 C24.7109375 101.12625 24.7109375 104.09625 24.7109375 107.15625 C7.2209375 106.82625 -10.2690625 106.49625 -28.2890625 106.15625 C-29.2890625 100.15625 -29.2890625 100.15625 -28.30078125 98.32421875 C-25.28852135 96.57535329 -22.55449732 96.62714151 -19.1015625 96.46875 C-17.82925781 96.40300781 -16.55695313 96.33726562 -15.24609375 96.26953125 C-13.78236328 96.21345703 -13.78236328 96.21345703 -12.2890625 96.15625 C-12.24242531 87.64506821 -12.20703563 79.13394111 -12.18543816 70.62266254 C-12.17506494 66.66921236 -12.1610261 62.71585053 -12.13818359 58.76245117 C-12.11622181 54.93690834 -12.10444549 51.1114497 -12.09930801 47.28584862 C-12.09565363 45.83684148 -12.08851962 44.38783819 -12.07760239 42.93886757 C-11.27931541 25.3675142 -11.27931541 25.3675142 -18.2890625 10.15625 C-23.09304694 6.80463295 -27.61912827 6.3462594 -33.2890625 7.15625 C-41.06730978 9.20315718 -46.87910461 14.39697363 -52.2890625 20.15625 C-53.14814209 21.0421582 -54.00722168 21.92806641 -54.89233398 22.84082031 C-58.93531897 28.61709407 -58.01679695 35.95501286 -57.99609375 42.71484375 C-58.00922221 44.22943601 -58.02452996 45.74401081 -58.04191589 47.25856018 C-58.08164551 51.22550761 -58.09194845 55.19199577 -58.09594727 59.15911865 C-58.10530162 63.2149437 -58.14272941 67.27050146 -58.17773438 71.32617188 C-58.24218735 79.26953635 -58.27552798 87.21263627 -58.2890625 95.15625 C-57.38522827 95.24604126 -57.38522827 95.24604126 -56.46313477 95.33764648 C-55.26515259 95.46248413 -55.26515259 95.46248413 -54.04296875 95.58984375 C-53.2547876 95.67032959 -52.46660645 95.75081543 -51.65454102 95.83374023 C-48.39558078 96.27806746 -45.41921394 97.1572655 -42.2890625 98.15625 C-42.2890625 101.12625 -42.2890625 104.09625 -42.2890625 107.15625 C-59.7790625 106.82625 -77.2690625 106.49625 -95.2890625 106.15625 C-95.7840625 103.18625 -95.7840625 103.18625 -96.2890625 100.15625 C-93.2890625 97.15625 -93.2890625 97.15625 -79.2890625 96.15625 C-79.2890625 67.11625 -79.2890625 38.07625 -79.2890625 8.15625 C-83.5790625 7.82625 -87.8690625 7.49625 -92.2890625 7.15625 C-93.2790625 6.82625 -94.2690625 6.49625 -95.2890625 6.15625 C-95.2890625 3.51625 -95.2890625 0.87625 -95.2890625 -1.84375 C-90.94569676 -4.01543287 -85.44039247 -3.86431028 -80.6640625 -4.40625 C-79.50003906 -4.54482422 -78.33601562 -4.68339844 -77.13671875 -4.82617188 C-71.14572059 -5.51483135 -65.31918284 -6.01497564 -59.2890625 -5.84375 C-57.33874558 -1.76651266 -57.07324279 1.47317422 -57.1640625 5.96875 C-57.18210937 7.13019531 -57.20015625 8.29164062 -57.21875 9.48828125 C-57.24195313 10.36871094 -57.26515625 11.24914062 -57.2890625 12.15625 C-56.4228125 10.9496875 -56.4228125 10.9496875 -55.5390625 9.71875 C-48.57425096 1.38478748 -39.55854469 -4.1332836 -29.1015625 -6.59375 C-18.79211376 -7.26977943 -8.31028159 -6.69360565 0 0 Z " fill="#101111" transform="translate(980.2890625,60.84375)"/>
<path d="M0 0 C2.1871246 4.39240745 2.25436537 8.42711074 2.17944336 13.22753906 C2.17491653 14.04286606 2.17038971 14.85819305 2.16572571 15.69822693 C2.15479107 17.46392268 2.13930305 19.22959486 2.11976433 20.99521637 C2.08951865 23.79572675 2.07276816 26.59602741 2.05970764 29.39666748 C2.0200315 37.35786738 1.95507917 45.31881442 1.88354492 53.27978516 C1.84067091 58.15494543 1.81267115 63.03001981 1.79324532 67.90532684 C1.78272231 69.75679505 1.76637543 71.60824017 1.74394035 73.45960236 C1.71250935 76.05814166 1.69992995 78.65618169 1.69116211 81.25488281 C1.67723419 82.00948288 1.66330627 82.76408295 1.6489563 83.54154968 C1.65835507 89.02954875 2.65582565 94.00396437 5 99 C9.27232482 102.73470005 13.49417114 102.50108341 18.9375 102.34765625 C26.56419573 101.48187064 33.52627553 97.2937374 39 92 C39.49140976 91.54627014 39.98281952 91.09254028 40.48912048 90.62506104 C46.58081589 83.99748414 45.76509654 76.35402405 45.5859375 67.90625 C45.57473064 66.34828331 45.5661975 64.7902953 45.56021118 63.2322998 C45.53742922 59.15470808 45.47860168 55.07842252 45.4119873 51.00134277 C45.35033242 46.83180404 45.323147 42.66205182 45.29296875 38.4921875 C45.22884467 30.32752918 45.12659848 22.1639276 45 14 C44.09636719 13.93941406 43.19273437 13.87882812 42.26171875 13.81640625 C41.08222656 13.73261719 39.90273438 13.64882812 38.6875 13.5625 C37.51574219 13.48128906 36.34398437 13.40007812 35.13671875 13.31640625 C32 13 32 13 29 12 C29 9.36 29 6.72 29 4 C32.0695256 3.52070531 35.1397235 3.04650186 38.2109375 2.578125 C40.69626819 2.1989199 43.18069132 1.81370755 45.6640625 1.421875 C52.19374769 0.42606244 58.39530151 -0.22774822 65 0 C66.72206795 3.44413589 66.17197048 7.41524467 66.18945312 11.20727539 C66.20189308 12.6390789 66.20189308 12.6390789 66.21458435 14.09980774 C66.23200755 16.17655323 66.24716812 18.25331862 66.26036072 20.33009529 C66.281337 23.61126549 66.30836265 26.8923353 66.33703613 30.17344666 C66.4069743 38.32185917 66.46634714 46.47034277 66.52606201 54.61883545 C66.57689806 61.50232114 66.63169096 68.38575266 66.69187927 75.26916313 C66.71855573 78.51154368 66.73930751 81.75392898 66.7598877 84.99635315 C66.77648258 86.97161095 66.7933537 88.94686646 66.81054688 90.92211914 C66.81473129 91.83175415 66.81891571 92.74138916 66.82322693 93.67858887 C66.46649293 97.65755406 66.46649293 97.65755406 68 101 C70.32741989 101.37238718 72.66235715 101.69836866 75 102 C81.88888889 102.88888889 81.88888889 102.88888889 83 104 C83.125 107.5 83.125 107.5 83 111 C81.08316125 112.91683875 77.68345808 112.51530552 75.12109375 112.75390625 C74.4344313 112.81907944 73.74776886 112.88425262 73.04029846 112.95140076 C70.83973565 113.15928893 68.63865218 113.36095738 66.4375 113.5625 C64.94852939 113.70206573 63.45959649 113.84203442 61.97070312 113.98242188 C58.3142287 114.32629738 54.65726232 114.66459582 51 115 C48.56181064 111.34271595 48.3283308 108.06712105 47.875 103.8125 C47.78863281 103.06291016 47.70226562 102.31332031 47.61328125 101.54101562 C47.40161618 99.69482588 47.19984536 97.84750656 47 96 C46.32195312 96.72445312 45.64390625 97.44890625 44.9453125 98.1953125 C35.08620769 108.51650709 24.95118943 115.84468987 10.1875 116.1875 C0.95469282 116.0490771 -6.6855923 114.00417578 -13.5390625 107.55078125 C-17.9537089 102.63271026 -19.23295863 97.54035373 -19.31884766 91.06835938 C-19.33871735 89.91855591 -19.35858704 88.76875244 -19.37905884 87.58410645 C-19.39061005 86.34978882 -19.40216125 85.11547119 -19.4140625 83.84375 C-19.43342865 82.55045776 -19.4527948 81.25716553 -19.4727478 79.92468262 C-19.52400047 76.48088683 -19.56356867 73.03704959 -19.60089111 69.59307861 C-19.63252556 66.84664827 -19.67224348 64.10036566 -19.71246719 61.35404968 C-19.9435843 45.56926439 -20.05617222 29.78647519 -20 14 C-20.96832764 13.93288818 -21.93665527 13.86577637 -22.93432617 13.79663086 C-32.625 13.125 -32.625 13.125 -36 12 C-36 9.36 -36 6.72 -36 4 C-31.65663426 1.82831713 -26.15132997 1.97943972 -21.375 1.4375 C-20.21097656 1.29892578 -19.04695313 1.16035156 -17.84765625 1.01757812 C-11.85665809 0.32891865 -6.03012034 -0.17122564 0 0 Z " fill="#101111" transform="translate(493,55)"/>
<path d="M0 0 C5.65279593 5.34101102 7.85604548 12.93557261 8.21398926 20.5241394 C8.22651733 21.73546539 8.23904541 22.94679138 8.25195312 24.19482422 C8.26439308 25.20317825 8.26439308 25.20317825 8.27708435 26.23190308 C8.29441575 27.68488149 8.30960109 29.13788677 8.32286072 30.59090805 C8.34400744 32.89524077 8.37102146 35.19944003 8.39953613 37.50369263 C8.45906211 42.39824293 8.51127671 47.29285671 8.5625 52.1875 C8.62190629 57.85516587 8.68435814 63.52276594 8.75437927 69.19031143 C8.78077941 71.45187475 8.80169969 73.71344543 8.8223877 75.97506714 C8.83900668 77.37384353 8.8558799 78.77261694 8.87304688 80.17138672 C8.88557495 81.38430389 8.89810303 82.59722107 8.91101074 83.84689331 C9.06427615 87.3531328 9.56616935 90.83818546 10.0625 94.3125 C15.0125 94.9725 19.9625 95.6325 25.0625 96.3125 C25.0625 99.2825 25.0625 102.2525 25.0625 105.3125 C20.68560398 105.79021432 16.30751075 106.25375386 11.92773438 106.70410156 C10.43741289 106.85937045 8.94749195 107.01853461 7.45800781 107.18164062 C5.31928874 107.41516255 3.17952931 107.63472553 1.0390625 107.8515625 C-0.24919434 107.98771973 -1.53745117 108.12387695 -2.86474609 108.26416016 C-3.87875488 108.2801123 -4.89276367 108.29606445 -5.9375 108.3125 C-8.75234045 105.49765955 -8.56507042 103.0958753 -9.0625 99.1875 C-9.23007812 97.90617187 -9.39765625 96.62484375 -9.5703125 95.3046875 C-9.69148437 94.31726563 -9.81265625 93.32984375 -9.9375 92.3125 C-10.494375 92.83199219 -11.05125 93.35148437 -11.625 93.88671875 C-22.57968951 103.89767656 -33.14026821 109.76973656 -48.2890625 109.51953125 C-55.85494367 108.92809806 -61.74928039 106.61394956 -67.24609375 101.328125 C-72.71469854 94.81126571 -74.39501684 86.94976104 -73.71875 78.6171875 C-72.46001838 69.92709806 -69.2686553 62.25770581 -62.1796875 56.78125 C-46.72917517 46.66035691 -30.1286441 43.8081715 -11.9375 43.3125 C-12.01947263 39.52002038 -12.13220943 35.72902281 -12.25 31.9375 C-12.28383789 30.34615234 -12.28383789 30.34615234 -12.31835938 28.72265625 C-12.60973003 20.08748962 -13.29167957 10.56738982 -19.9375 4.3125 C-24.44357259 1.75499934 -28.96996947 1.63985975 -33.98828125 2.77734375 C-39.01372815 4.37677977 -42.09002849 6.78597234 -44.9375 11.3125 C-46.24092304 14.69565572 -47.01586078 18.20574029 -47.7890625 21.7421875 C-48.3359375 23.828125 -48.3359375 23.828125 -49.9375 27.3125 C-53.92004028 29.08200456 -57.37421213 29.65268947 -61.6875 29.125 C-62.42484375 29.04894531 -63.1621875 28.97289062 -63.921875 28.89453125 C-66.36501252 28.18905162 -67.35434325 27.27829282 -68.9375 25.3125 C-70.86578263 20.170413 -69.30171405 15.95136191 -67.35546875 11.0625 C-62.87152121 2.36635932 -54.86933756 -2.33816213 -45.83984375 -5.3984375 C-43.87826284 -5.93660483 -41.94137139 -6.34090594 -39.9375 -6.6875 C-38.98037109 -6.87119141 -38.98037109 -6.87119141 -38.00390625 -7.05859375 C-25.34536061 -8.99685877 -10.4540942 -7.93981838 0 0 Z M-47.3515625 61.68359375 C-51.96670999 66.42378218 -53.83943674 71.69322972 -53.9375 78.3125 C-53.85489586 84.3839043 -53.01489088 88.55554397 -48.9375 93.3125 C-43.40757259 97.21818727 -38.51182799 97.36922321 -31.9375 96.3125 C-26.93812685 94.46755636 -22.40647762 92.24492842 -17.9375 89.3125 C-17.36531738 88.98072754 -16.79313477 88.64895508 -16.20361328 88.30712891 C-14.10559161 86.77055837 -13.12374082 85.65062014 -11.9375 83.3125 C-11.19878424 77.83401174 -11.37233209 72.44997733 -11.5625 66.9375 C-11.59262345 65.42322983 -11.6199951 63.90890226 -11.64453125 62.39453125 C-11.71037237 58.69932102 -11.8137607 55.00627679 -11.9375 51.3125 C-23.72869751 51.3125 -38.1347308 53.92512149 -47.3515625 61.68359375 Z " fill="#101111" transform="translate(852.9375,61.6875)"/>
<path d="M0 0 C4.65785008 4.47603809 7.94814646 9.6230218 11.0625 15.25 C11.46339844 15.95640625 11.86429688 16.6628125 12.27734375 17.390625 C20.51441735 33.67827242 19.4378981 53.69107403 13.99609375 70.5546875 C11.36357368 77.38360096 7.90764325 82.79261642 3.0625 88.25 C2.56363281 88.86488281 2.06476563 89.47976562 1.55078125 90.11328125 C-6.48036848 99.23682918 -18.9506349 103.57878186 -30.76171875 104.4609375 C-44.6528937 104.93305586 -55.88347924 100.82586053 -67.1875 93 C-79.77951008 80.40798992 -85.13082266 63.83422951 -85.3125 46.25 C-85.07834505 29.41731322 -80.37082902 13.64935621 -68.8125 1.1875 C-48.81167468 -17.13049726 -20.53704266 -16.85980192 0 0 Z M-54.37109375 7.88671875 C-61.92693608 19.28643099 -63.33133646 32.04161296 -63.3125 45.375 C-63.31088867 46.56262939 -63.30927734 47.75025879 -63.30761719 48.97387695 C-63.10553333 63.51896133 -60.65907258 78.52842742 -49.9375 89.25 C-43.81126978 94.21119926 -38.0072597 94.9900407 -30.23828125 94.65625 C-22.3804867 93.68913682 -17.78375762 89.9363205 -12.76171875 83.9375 C-2.41847246 68.69948405 -1.7174952 46.85392458 -4.66015625 29.2265625 C-6.19179251 21.6491224 -8.45721941 14.62968757 -12.9375 8.25 C-13.535625 7.3425 -14.13375 6.435 -14.75 5.5 C-20.03693529 0.06200942 -25.98368386 -2.87041445 -33.5625 -3.125 C-42.65537255 -3.01531517 -48.71558701 0.91902947 -54.37109375 7.88671875 Z " fill="#101111" transform="translate(1264.9375,66.75)"/>
<path d="M0 0 C3.55243132 1.30497477 4.49759996 2.73515165 6.24584866 6.01665688 C7.73412276 9.85892384 7.61186826 13.65243356 7.57043457 17.72729492 C7.57979451 19.14993416 7.57979451 19.14993416 7.58934355 20.60131359 C7.60525935 23.76962049 7.59267452 26.93715656 7.58007812 30.10546875 C7.58549985 32.38083341 7.59262279 34.65619457 7.60131836 36.93154907 C7.61954841 43.10504901 7.61248529 49.27828145 7.59980202 55.45178604 C7.58967282 61.91342132 7.59906748 68.37503374 7.60534668 74.83666992 C7.61308934 86.38269319 7.60066109 97.92857974 7.58030933 109.4745816 C7.56243904 119.93656517 7.56554338 130.39837119 7.58398438 140.86035156 C7.60540565 153.0187491 7.61335046 165.17700734 7.60153532 177.33542728 C7.59530017 183.76812566 7.59446551 190.20070181 7.60768127 196.63339233 C7.61923829 202.68110703 7.61121625 208.72848652 7.58810425 214.77616501 C7.58281644 216.99532896 7.58433213 219.21452114 7.59315491 221.43367386 C7.60409071 224.46373142 7.59036972 227.49271584 7.57043457 230.52270508 C7.5838189 231.83900799 7.5838189 231.83900799 7.59747362 233.18190289 C7.52381011 238.9569711 6.46513706 242.40985156 3.0625 247.125 C0.125 248.4375 0.125 248.4375 -2.9375 248.125 C-6.79683207 244.4371938 -8.72006812 241.44766976 -9.0651505 236.17431802 C-9.066397 235.48702152 -9.06764349 234.79972503 -9.06892776 234.09160137 C-9.07276891 233.29373988 -9.07661005 232.49587839 -9.0805676 231.67383927 C-9.07970112 230.80312926 -9.07883463 229.93241926 -9.07794189 229.0353241 C-9.08091302 228.10579542 -9.08388414 227.17626674 -9.0869453 226.21857053 C-9.09563337 223.09646959 -9.09714063 219.974407 -9.09863281 216.85229492 C-9.10326088 214.61678485 -9.10828552 212.38127557 -9.11367798 210.14576721 C-9.12680434 204.06721583 -9.1332473 197.98867549 -9.13768864 191.91011214 C-9.14061873 188.11359429 -9.1447234 184.31707946 -9.14919281 180.52056313 C-9.16130097 170.00592172 -9.17168348 159.4912821 -9.1750679 148.97663403 C-9.17528747 148.30392008 -9.17550703 147.63120613 -9.17573325 146.93810691 C-9.17595153 146.26379939 -9.17616981 145.58949186 -9.1763947 144.89475077 C-9.17683816 143.52838528 -9.17728473 142.16201979 -9.17773438 140.7956543 C-9.1779558 140.11789231 -9.17817723 139.44013032 -9.17840537 138.74183009 C-9.18235324 127.76015423 -9.19980776 116.77854474 -9.2230939 105.79689451 C-9.24681685 94.51807922 -9.25901226 83.23929607 -9.26043582 71.9604519 C-9.26148466 65.62943559 -9.26740944 59.29851291 -9.28525543 52.96751976 C-9.3017146 47.01266642 -9.30390201 41.05797731 -9.29511642 35.10310936 C-9.29434492 32.91780152 -9.2987036 30.73248493 -9.30857468 28.54719925 C-9.32126314 25.56314561 -9.31543401 22.57967634 -9.30499268 19.59562683 C-9.31304908 18.73160899 -9.32110548 17.86759115 -9.32940602 16.97739094 C-9.27881302 10.79181126 -8.06540941 6.36752863 -4.625 1.125 C-2.9375 0.125 -2.9375 0.125 0 0 Z " fill="#101010" transform="translate(284.9375,0.875)"/>
<path d="M0 0 C1.37649568 2.75299136 1.10514009 4.92888178 1.08229065 8.01101685 C1.07525116 9.29271759 1.06821167 10.57441833 1.06095886 11.8949585 C1.04797549 13.32336511 1.03489544 14.75177085 1.02172852 16.18017578 C1.01158885 17.67798581 1.00189484 19.1757989 0.99261475 20.6736145 C0.96610245 24.7477885 0.93332938 28.82189129 0.89946485 32.89600992 C0.86515275 37.15077129 0.83655322 41.40557087 0.80735779 45.66036987 C0.75117436 53.72101078 0.68982454 61.78160382 0.62663645 69.84219253 C0.55496116 79.01736875 0.48901816 88.19258333 0.42356598 97.36780572 C0.2887733 116.24525376 0.14675162 135.12264133 0 154 C0.67401855 154.05986084 1.34803711 154.11972168 2.04248047 154.18139648 C3.37883545 154.30623413 3.37883545 154.30623413 4.7421875 154.43359375 C5.62245605 154.51407959 6.50272461 154.59456543 7.40966797 154.67749023 C10.7719895 155.09611669 13.78339122 155.95110583 17 157 C17 159.64 17 162.28 17 165 C13.59321755 165.77599897 10.51606194 166.10460305 7.02612305 166.02172852 C6.06550461 166.00163223 5.10488617 165.98153595 4.11515808 165.96083069 C3.0910231 165.93379562 2.06688812 165.90676056 1.01171875 165.87890625 C-0.04661667 165.85529526 -1.10495209 165.83168427 -2.19535828 165.80735779 C-5.56788234 165.73092775 -8.94016474 165.64681439 -12.3125 165.5625 C-14.60220181 165.50925865 -16.89191533 165.45651839 -19.18164062 165.40429688 C-24.78790917 165.2753406 -30.39399895 165.14007948 -36 165 C-36.6875 162.1875 -36.6875 162.1875 -37 159 C-34 156 -34 156 -20 155 C-19.67 108.47 -19.34 61.94 -19 14 C-24.28 13.67 -29.56 13.34 -35 13 C-36 12 -36 12 -36.09765625 10.15234375 C-36.06510417 8.1015625 -36.03255208 6.05078125 -36 4 C-31.99899678 3.42410672 -27.99712849 2.85468783 -23.99438477 2.29101562 C-22.63541375 2.0987434 -21.276683 1.90476437 -19.91821289 1.70898438 C-17.95524539 1.42639779 -15.99129834 1.15064275 -14.02734375 0.875 C-12.25991821 0.62363281 -12.25991821 0.62363281 -10.45678711 0.3671875 C-6.94385604 -0.00596373 -3.52987232 -0.06306863 0 0 Z " fill="#101111" transform="translate(1418,2)"/>
<path d="M0 0 C0.43237305 1.97119141 0.43237305 1.97119141 0.51171875 4.3515625 C0.54716797 5.20234375 0.58261719 6.053125 0.61914062 6.9296875 C0.65297852 8.26386719 0.65297852 8.26386719 0.6875 9.625 C0.72166016 10.5221875 0.75582031 11.419375 0.79101562 12.34375 C0.87362402 14.56237538 0.94272719 16.7805994 1 19 C1.70125 18.20335938 2.4025 17.40671875 3.125 16.5859375 C18.08958124 -0.21941966 18.08958124 -0.21941966 29 -2 C34.25623599 -2.0423321 38.56827929 -1.95448047 43 1 C43.36328125 4.046875 43.36328125 4.046875 43.3125 7.75 C43.30863281 8.96171875 43.30476563 10.1734375 43.30078125 11.421875 C43.00601943 14.92839222 42.2594211 17.72851572 41 21 C40.13375 20.835 39.2675 20.67 38.375 20.5 C28.87576307 19.20640473 19.26331552 18.5281308 11 24 C4.38475294 28.71368678 4.38475294 28.71368678 0.60571289 35.29541016 C-0.21027605 48.30844734 -0.35034365 61.34080647 -0.5625 74.375 C-0.60577606 76.86458933 -0.64939297 79.35417276 -0.69335938 81.84375 C-0.79950495 87.89577087 -0.90143409 93.94785118 -1 100 C0.30650513 100.08979126 0.30650513 100.08979126 1.6394043 100.18139648 C3.37057495 100.30623413 3.37057495 100.30623413 5.13671875 100.43359375 C6.27584717 100.51407959 7.41497559 100.59456543 8.58862305 100.67749023 C13.14252963 101.10801414 17.54916388 101.96515549 22 103 C22 105.64 22 108.28 22 111 C18.37679802 111.84071869 15.0983702 112.09858697 11.38354492 112.02172852 C9.73239937 111.99158409 9.73239937 111.99158409 8.04789734 111.96083069 C6.8706459 111.93379562 5.69339447 111.90676056 4.48046875 111.87890625 C3.26676102 111.85529526 2.05305328 111.83168427 0.80256653 111.80735779 C-3.06924542 111.73086082 -6.94085032 111.64677591 -10.8125 111.5625 C-13.43944304 111.50926537 -16.06639614 111.45652506 -18.69335938 111.40429688 C-25.12903402 111.2752645 -31.56455519 111.14000385 -38 111 C-38 108.36 -38 105.72 -38 103 C-36.45998293 102.65912666 -34.91787594 102.32769047 -33.375 102 C-32.51648437 101.814375 -31.65796875 101.62875 -30.7734375 101.4375 C-28 101 -28 101 -22 101 C-21.67 71.96 -21.34 42.92 -21 13 C-25.29 12.67 -29.58 12.34 -34 12 C-35.32 11.34 -36.64 10.68 -38 10 C-37.74438677 7.6568787 -37.40729228 5.32156597 -37 3 C-34.11429151 1.55714575 -31.07562076 1.36937185 -27.91015625 0.95703125 C-27.20982773 0.86491867 -26.50949921 0.77280609 -25.78794861 0.67790222 C-24.30625317 0.4850573 -22.82427371 0.29438404 -21.34204102 0.10571289 C-19.07343128 -0.18609393 -16.80740653 -0.49422945 -14.54101562 -0.80273438 C-13.10169298 -0.98799571 -11.66224331 -1.17227339 -10.22265625 -1.35546875 C-9.54445328 -1.45014938 -8.86625031 -1.54483002 -8.16749573 -1.64237976 C-4.39186282 -2.10098549 -3.28734393 -2.19156262 0 0 Z " fill="#101111" transform="translate(1334,56)"/>
<path d="M0 0 C14.19 0 28.38 0 43 0 C44 6 44 6 43 9 C42.01902344 9.05414063 41.03804687 9.10828125 40.02734375 9.1640625 C27.99616662 10.32507109 22.0698443 15.41715696 13.95898438 23.98144531 C10.53165203 27.51299863 6.87430452 30.79806588 3.25 34.125 C-2.32107284 39.1596094 -2.32107284 39.1596094 -7 45 C-2.08743775 51.07867551 2.89804278 57.0801035 8 63 C12.30914502 68.00126292 16.53274811 73.05976006 20.69140625 78.1875 C23.89492012 82.09025802 27.17002003 85.93124844 30.45922852 89.76196289 C33.89237009 93.78474018 33.89237009 93.78474018 35 96 C37.69058598 96.80045663 40.33218727 97.4954659 43.0625 98.125 C43.82111328 98.30675781 44.57972656 98.48851562 45.36132812 98.67578125 C47.23913735 99.12456584 49.11935915 99.56323336 51 100 C51 102.97 51 105.94 51 109 C33.84 109 16.68 109 -1 109 C-1 101 -1 101 0 100 C1.84599688 99.60545777 3.70225822 99.25823134 5.5625 98.9375 C7.08037109 98.67259766 7.08037109 98.67259766 8.62890625 98.40234375 C9.41136719 98.26957031 10.19382812 98.13679688 11 98 C10.16597656 97.04480469 9.33195312 96.08960938 8.47265625 95.10546875 C2.63214612 88.40098814 -3.14698398 81.66647465 -8.74609375 74.7578125 C-11.35989782 71.55963975 -14.01837876 68.40200669 -16.6875 65.25 C-17.15333496 64.69691162 -17.61916992 64.14382324 -18.09912109 63.57397461 C-20.04972813 61.2645591 -22.01566469 58.98303239 -24.06640625 56.76171875 C-25.75 54.9375 -25.75 54.9375 -28 52 C-27.87378256 49.11888621 -27.09449354 48.09816225 -25.08837891 46.01416016 C-24.26772949 45.32112793 -23.44708008 44.6280957 -22.6015625 43.9140625 C-16.92551842 38.98109356 -11.65177703 33.72892289 -6.375 28.375 C-0.43382625 22.34772228 5.52309359 16.45411682 12 11 C11.21753906 10.86722656 10.43507813 10.73445313 9.62890625 10.59765625 C8.61699219 10.42105469 7.60507813 10.24445313 6.5625 10.0625 C5.55316406 9.88847656 4.54382812 9.71445313 3.50390625 9.53515625 C1 9 1 9 0 8 C0 5.36 0 2.72 0 0 Z " fill="#101111" transform="translate(1448,58)"/>
<path d="M0 0 C0.66 0 1.32 0 2 0 C3.32 5.28 4.64 10.56 6 16 C7.32 11.05 8.64 6.1 10 1 C11.32 1 12.64 1 14 1 C14.50636607 2.74816858 15.00484619 4.49862263 15.5 6.25 C15.7784375 7.22453125 16.056875 8.1990625 16.34375 9.203125 C17 12 17 12 17 16 C17.66 16 18.32 16 19 16 C19.04898438 15.43152344 19.09796875 14.86304688 19.1484375 14.27734375 C19.63143081 9.28918871 20.47638163 4.77400422 22 0 C22.66 0 23.32 0 24 0 C23.47963992 5.20360075 22.62656148 10.30384196 21.625 15.4375 C21.39039063 16.65308594 21.15578125 17.86867187 20.9140625 19.12109375 C20.61242187 20.07113281 20.31078125 21.02117187 20 22 C19.01 22.33 18.02 22.66 17 23 C16.32635339 20.91891315 15.66133202 18.8350329 15 16.75 C14.62875 15.58984375 14.2575 14.4296875 13.875 13.234375 C13 10 13 10 13 6 C12.34 6 11.68 6 11 6 C10.8453125 7.423125 10.8453125 7.423125 10.6875 8.875 C10.0089081 13.73491554 8.4914524 18.33803874 7 23 C6.34 23 5.68 23 5 23 C0.59225513 7.25512528 0.59225513 7.25512528 0 0 Z " fill="#101112" transform="translate(949,218)"/>
<path d="M0 0 C1.32 0 2.64 0 4 0 C5.65 4.62 7.3 9.24 9 14 C10.93938819 11.09091772 11.96774957 8.59137621 13.125 5.3125 C13.47820312 4.31863281 13.83140625 3.32476562 14.1953125 2.30078125 C14.46085937 1.54152344 14.72640625 0.78226563 15 0 C15.99 0 16.98 0 18 0 C18 7.59 18 15.18 18 23 C17.34 23 16.68 23 16 23 C15.67 18.38 15.34 13.76 15 9 C13.68 12.63 12.36 16.26 11 20 C10.01 20 9.02 20 8 20 C6.68 16.37 5.36 12.74 4 9 C3.67 13.29 3.34 17.58 3 22 C2.01 22 1.02 22 0 22 C0 14.74 0 7.48 0 0 Z " fill="#101213" transform="translate(332,218)"/>
<path d="M0 0 C0.99 0 1.98 0 3 0 C3.99 4.62 4.98 9.24 6 14 C7.59035502 10.81928996 8.64848268 8.12342347 9.625 4.75 C9.88539063 3.85796875 10.14578125 2.9659375 10.4140625 2.046875 C10.60742188 1.37140625 10.80078125 0.6959375 11 0 C11.99 0 12.98 0 14 0 C15.32 4.95 16.64 9.9 18 15 C19.32 10.05 20.64 5.1 22 0 C22.99 0.33 23.98 0.66 25 1 C23.35 7.93 21.7 14.86 20 22 C19.01 22 18.02 22 17 22 C16.72285156 21.00097656 16.44570313 20.00195312 16.16015625 18.97265625 C15.79444451 17.66922209 15.42854962 16.36583931 15.0625 15.0625 C14.88009766 14.40314453 14.69769531 13.74378906 14.50976562 13.06445312 C13.77403899 9.76178827 13.77403899 9.76178827 12 7 C11.74605469 8.07121094 11.49210938 9.14242187 11.23046875 10.24609375 C10.88348742 11.64339694 10.53579423 13.04052349 10.1875 14.4375 C10.02185547 15.14455078 9.85621094 15.85160156 9.68554688 16.58007812 C9.22048061 18.41401868 8.6181087 20.21182601 8 22 C7.01 22.33 6.02 22.66 5 23 C4.16301505 19.54253984 3.33103324 16.08389511 2.5 12.625 C2.26152344 11.64015625 2.02304687 10.6553125 1.77734375 9.640625 C1.55175781 8.69960937 1.32617188 7.75859375 1.09375 6.7890625 C0.88427734 5.91975098 0.67480469 5.05043945 0.45898438 4.15478516 C0 2 0 2 0 0 Z " fill="#101112" transform="translate(780,218)"/>
<path d="M0 0 C2.94441892 0.12126781 2.94441892 0.12126781 5.5 -0.625 C8 -1 8 -1 11 1 C12.09506492 4.28519475 12.09960608 6.73663415 12.0625 10.1875 C12.05347656 11.27417969 12.04445313 12.36085937 12.03515625 13.48046875 C12.02355469 14.31191406 12.01195312 15.14335937 12 16 C11.01 16 10.02 16 9 16 C8.505 9.565 8.505 9.565 8 3 C6.02 3 4.04 3 2 3 C2 7.29 2 11.58 2 16 C1.01 16 0.02 16 -1 16 C-1.33 11.71 -1.66 7.42 -2 3 C-3.65 3.33 -5.3 3.66 -7 4 C-7.33 7.96 -7.66 11.92 -8 16 C-8.99 16 -9.98 16 -11 16 C-11 10.72 -11 5.44 -11 0 C-6.03156664 -0.82807223 -4.44024226 -1.08005893 0 0 Z " fill="#101315" transform="translate(900,224)"/>
<path d="M0 0 C0 0.66 0 1.32 0 2 C-0.99 2.495 -0.99 2.495 -2 3 C-1.938125 3.763125 -1.87625 4.52625 -1.8125 5.3125 C-2 8 -2 8 -3.125 9.75 C-5.65977861 11.43985241 -8.00575483 11.66730609 -11 12 C-11 12.33 -11 12.66 -11 13 C-10.28972656 13.13277344 -9.57945312 13.26554688 -8.84765625 13.40234375 C-7.92855469 13.57894531 -7.00945312 13.75554687 -6.0625 13.9375 C-5.14597656 14.11152344 -4.22945313 14.28554687 -3.28515625 14.46484375 C-1 15 -1 15 0 16 C0.3125 18.375 0.3125 18.375 0 21 C-1.78697551 23.15926208 -3.17224412 23.87841815 -5.94140625 24.28515625 C-8.90989035 24.41089315 -11.27057097 24.50834103 -13.765625 22.76953125 C-15.43386938 20.37802902 -15.13014968 19.16066007 -14.6875 16.3125 C-14.2224038 12.99384483 -13.98677371 9.96834721 -14.1875 6.625 C-14 3 -14 3 -12.625 0.4375 C-8.47770395 -1.83363831 -4.52958594 -0.79527081 0 0 Z M-10.8125 2.1875 C-12.25290328 3.95054109 -12.25290328 3.95054109 -11.6875 6.1875 C-11.460625 6.785625 -11.23375 7.38375 -11 8 C-8.60280568 8.67958603 -8.60280568 8.67958603 -6 9 C-5.34 8.34 -4.68 7.68 -4 7 C-4.32041397 4.39719432 -4.32041397 4.39719432 -5 2 C-8.00748915 0.84137694 -8.00748915 0.84137694 -10.8125 2.1875 Z M-11 16 C-11.38218767 17.65614657 -11.71395102 19.32457024 -12 21 C-10.82963695 22.39287806 -10.82963695 22.39287806 -7.5625 22.1875 C-3.94967279 22.39564928 -3.94967279 22.39564928 -2 20 C-2 19.01 -2 18.02 -2 17 C-4.97 16.67 -7.94 16.34 -11 16 Z " fill="#101213" transform="translate(420,224)"/>
<path d="M0 0 C0.99 0 1.98 0 3 0 C3.33 4.62 3.66 9.24 4 14 C5.65 12.02 7.3 10.04 9 8 C9.99 8.33 10.98 8.66 12 9 C10.02 11.97 10.02 11.97 8 15 C8.3609375 15.55429688 8.721875 16.10859375 9.09375 16.6796875 C9.5578125 17.40414062 10.021875 18.12859375 10.5 18.875 C10.9640625 19.59429687 11.428125 20.31359375 11.90625 21.0546875 C13 23 13 23 13 25 C9.24623848 23.74874616 8.75926711 22.4347596 7 19 C7 18.34 7 17.68 7 17 C3.39345961 19.40436026 3.14547068 20.94679607 2 25 C1.34 24.67 0.68 24.34 0 24 C0 16.08 0 8.16 0 0 Z " fill="#111416" transform="translate(623,216)"/>
<path d="M0 0 C0.66 0 1.32 0 2 0 C2 2.97 2 5.94 2 9 C5.63 9 9.26 9 13 9 C13 6.03 13 3.06 13 0 C13.66 0 14.32 0 15 0 C15 7.59 15 15.18 15 23 C14.34 23 13.68 23 13 23 C13 19.37 13 15.74 13 12 C9.37 12 5.74 12 2 12 C2 15.63 2 19.26 2 23 C1.34 23 0.68 23 0 23 C0 15.41 0 7.82 0 0 Z " fill="#101112" transform="translate(851,218)"/>
<path d="M0 0 C1.051875 0.2475 2.10375 0.495 3.1875 0.75 C3.5175 2.07 3.8475 3.39 4.1875 4.75 C1.2175 4.42 -1.7525 4.09 -4.8125 3.75 C-4.94065365 6.1352733 -4.94065365 6.1352733 -3.8125 8.75 C-1.81968316 10.05563862 0.19234643 11.00211166 2.375 11.953125 C4.1875 12.75 4.1875 12.75 5.1875 13.75 C5.5 17.125 5.5 17.125 5.1875 20.75 C2.99629809 23.3625869 1.61983248 23.69480862 -1.75 24.125 C-5.1782918 23.70520917 -7.08109492 22.83872153 -9.8125 20.75 C-9.8125 20.09 -9.8125 19.43 -9.8125 18.75 C-8.94625 19.08 -8.08 19.41 -7.1875 19.75 C-3.85531725 20.73731341 -1.26090462 20.91420974 2.1875 20.75 C2.60004028 18.37425214 2.60004028 18.37425214 2.1875 15.75 C0.02181501 14.04801808 0.02181501 14.04801808 -2.75 12.8125 C-7.68491676 10.13274971 -7.68491676 10.13274971 -8.9375 6.375 C-8.8125 3.75 -8.8125 3.75 -6.75 1.6875 C-3.8125 -0.25 -3.8125 -0.25 0 0 Z " fill="#101214" transform="translate(653.8125,217.25)"/>
<path d="M0 0 C2.42130331 3.63195496 2.21022785 5.38349348 2.125 9.6875 C2.10695313 10.86699219 2.08890625 12.04648438 2.0703125 13.26171875 C2.03550781 14.61716797 2.03550781 14.61716797 2 16 C1.34 16.33 0.68 16.66 0 17 C0 16.34 0 15.68 0 15 C-0.99 15.66 -1.98 16.32 -3 17 C-6.6875 16.625 -6.6875 16.625 -10 16 C-11.32338787 10.58614052 -11.32338787 10.58614052 -10 8.1875 C-7.1138617 6.47385538 -4.30335954 6.31163769 -1 6 C-1.66 4.68 -2.32 3.36 -3 2 C-5.31 2.33 -7.62 2.66 -10 3 C-10 2.34 -10 1.68 -10 1 C-6.43904118 -1.32831923 -4.04274788 -1.14251571 0 0 Z M-7.25 10 C-7.8275 10.66 -8.405 11.32 -9 12 C-8.01 13.485 -8.01 13.485 -7 15 C-3.70924004 14.62095792 -3.70924004 14.62095792 -1 13 C-0.95936168 11.33382885 -0.957279 9.66611905 -1 8 C-5.00346023 7.55709077 -5.00346023 7.55709077 -7.25 10 Z " fill="#101213" transform="translate(470,224)"/>
<path d="M0 0 C0.66 0 1.32 0 2 0 C2 2.97 2 5.94 2 9 C3.32 8.34 4.64 7.68 6 7 C8.625 7.1875 8.625 7.1875 11 8 C13.42130331 11.63195496 13.21022785 13.38349348 13.125 17.6875 C13.10695313 18.86699219 13.08890625 20.04648438 13.0703125 21.26171875 C13.03550781 22.61716797 13.03550781 22.61716797 13 24 C12.01 24 11.02 24 10 24 C10 19.38 10 14.76 10 10 C7.69 10.66 5.38 11.32 3 12 C2.67 16.29 2.34 20.58 2 25 C1.34 25 0.68 25 0 25 C0 16.75 0 8.5 0 0 Z " fill="#101112" transform="translate(826,216)"/>
<path d="M0 0 C2.3346982 3.29650078 2.21072257 6.30676192 2.125 10.25 C2.10695313 11.32765625 2.08890625 12.4053125 2.0703125 13.515625 C2.04710937 14.33546875 2.02390625 15.1553125 2 16 C1.01 16 0.02 16 -1 16 C-2.155 16.20625 -3.31 16.4125 -4.5 16.625 C-8 17 -8 17 -11 15 C-11.4267842 12.22590267 -11.40555487 10.66797273 -9.9375 8.25 C-7.10246091 6.42094252 -4.31199025 6.31245191 -1 6 C-1.66 4.68 -2.32 3.36 -3 2 C-5.31 2.33 -7.62 2.66 -10 3 C-9.67 2.01 -9.34 1.02 -9 0 C-5.44712603 -1.18429132 -3.58589143 -0.99184231 0 0 Z M-9 11 C-8.34 12.32 -7.68 13.64 -7 15 C-3.70924004 14.62095792 -3.70924004 14.62095792 -1 13 C-0.95936168 11.33382885 -0.957279 9.66611905 -1 8 C-5.26826873 8 -5.93882432 8.37613513 -9 11 Z " fill="#101214" transform="translate(400,224)"/>
<path d="M0 0 C2.29013653 3.4352048 2.17842973 4.985331 2 9 C-1.63 9 -5.26 9 -9 9 C-8.00864359 11.6273026 -8.00864359 11.6273026 -6 14 C-2.37400578 14.41725678 -2.37400578 14.41725678 1 14 C1 14.66 1 15.32 1 16 C-1.84083641 17.42041821 -3.85477278 17.31452272 -7 17 C-9.30275556 15.1329009 -10.67823871 13.64352259 -12 11 C-12.25303321 7.12015747 -12.30454139 4.22635795 -10 1 C-6.62177216 -1.53367088 -3.95452618 -1.11758349 0 0 Z M-5 1 C-7.05990478 2.29467677 -7.05990478 2.29467677 -9 4 C-9 4.99 -9 5.98 -9 7 C-6.03 7 -3.06 7 0 7 C-0.50980961 2.96621634 -0.50980961 2.96621634 -3.0625 1.75 C-3.701875 1.5025 -4.34125 1.255 -5 1 Z " fill="#101112" transform="translate(433,224)"/>
<path d="M0 0 C2.9375 0.8125 2.9375 0.8125 4.9375 3.8125 C5.0625 7 5.0625 7 4.9375 9.8125 C1.3075 9.8125 -2.3225 9.8125 -6.0625 9.8125 C-5.07114359 12.4398026 -5.07114359 12.4398026 -3.0625 14.8125 C0.56349422 15.22975678 0.56349422 15.22975678 3.9375 14.8125 C3.9375 15.4725 3.9375 16.1325 3.9375 16.8125 C1.09666359 18.23291821 -0.91727278 18.12702272 -4.0625 17.8125 C-7.29312308 15.62964657 -7.97017139 14.15103825 -9 10.375 C-9.07004154 6.38263213 -8.52715254 4.89331567 -6.0625 1.8125 C-3.0625 -0.1875 -3.0625 -0.1875 0 0 Z M-2.0625 1.8125 C-4.12240478 3.10717677 -4.12240478 3.10717677 -6.0625 4.8125 C-6.0625 5.8025 -6.0625 6.7925 -6.0625 7.8125 C-3.0925 7.8125 -0.1225 7.8125 2.9375 7.8125 C2.42769039 3.77871634 2.42769039 3.77871634 -0.125 2.5625 C-0.764375 2.315 -1.40375 2.0675 -2.0625 1.8125 Z " fill="#101112" transform="translate(717.0625,223.1875)"/>
<path d="M0 0 C2.9375 0.8125 2.9375 0.8125 4.9375 3.8125 C5.0625 7 5.0625 7 4.9375 9.8125 C1.3075 9.8125 -2.3225 9.8125 -6.0625 9.8125 C-5.07114359 12.4398026 -5.07114359 12.4398026 -3.0625 14.8125 C0.56349422 15.22975678 0.56349422 15.22975678 3.9375 14.8125 C3.9375 15.4725 3.9375 16.1325 3.9375 16.8125 C1.09666359 18.23291821 -0.91727278 18.12702272 -4.0625 17.8125 C-7.29312308 15.62964657 -7.97017139 14.15103825 -9 10.375 C-9.07004154 6.38263213 -8.52715254 4.89331567 -6.0625 1.8125 C-3.0625 -0.1875 -3.0625 -0.1875 0 0 Z M-2.0625 1.8125 C-4.12240478 3.10717677 -4.12240478 3.10717677 -6.0625 4.8125 C-6.0625 5.8025 -6.0625 6.7925 -6.0625 7.8125 C-3.0925 7.8125 -0.1225 7.8125 2.9375 7.8125 C2.42769039 3.77871634 2.42769039 3.77871634 -0.125 2.5625 C-0.764375 2.315 -1.40375 2.0675 -2.0625 1.8125 Z " fill="#101112" transform="translate(492.0625,223.1875)"/>
<path d="M0 0 C0.66 0 1.32 0 2 0 C2.03738281 1.19238281 2.07476563 2.38476562 2.11328125 3.61328125 C2.17894032 5.179719 2.24538768 6.74612384 2.3125 8.3125 C2.33505859 9.09818359 2.35761719 9.88386719 2.38085938 10.69335938 C2.41630859 11.45068359 2.45175781 12.20800781 2.48828125 12.98828125 C2.51446533 13.68477783 2.54064941 14.38127441 2.56762695 15.09887695 C3.12436004 17.54680498 4.01613796 18.4957073 6 20 C8.6272914 19.92466753 8.6272914 19.92466753 11 19 C12.6498007 15.70039859 12.38258361 12.00872116 12.5625 8.375 C12.60568359 7.57320312 12.64886719 6.77140625 12.69335938 5.9453125 C12.79951457 3.9637489 12.90026855 1.98189729 13 0 C13.66 0 14.32 0 15 0 C15.14554346 3.08283443 15.23413821 6.16478439 15.3125 9.25 C15.3753418 10.55904297 15.3753418 10.55904297 15.43945312 11.89453125 C15.56315243 18.37637483 15.56315243 18.37637483 12.671875 21.578125 C9.41838956 23.30951199 7.633403 23.61845157 4 23 C1.83203125 21.578125 1.83203125 21.578125 0 19 C-0.49286969 15.73686277 -0.37637075 12.5404999 -0.25 9.25 C-0.23195313 8.36183594 -0.21390625 7.47367188 -0.1953125 6.55859375 C-0.14827374 4.37129152 -0.08257009 2.18620184 0 0 Z " fill="#101010" transform="translate(544,218)"/>
<path d="M0 0 C0.66 0 1.32 0 2 0 C2.33 4.95 2.66 9.9 3 15 C4.98 12.69 6.96 10.38 9 8 C9.99 8.33 10.98 8.66 12 9 C10.02 11.97 10.02 11.97 8 15 C8.3609375 15.55429688 8.721875 16.10859375 9.09375 16.6796875 C9.5578125 17.40414062 10.021875 18.12859375 10.5 18.875 C10.9640625 19.59429687 11.428125 20.31359375 11.90625 21.0546875 C13 23 13 23 13 25 C9.2047869 23.50902342 7.38957269 21.24299151 5 18 C2.64046906 20.35953094 2.50858587 21.77895617 2 25 C1.34 25 0.68 25 0 25 C0 16.75 0 8.5 0 0 Z " fill="#101112" transform="translate(1005,216)"/>
<path d="M0 0 C2.94410493 2.45342078 3.01176757 4.0926696 3.5 7.9375 C3.35606768 11.27923288 2.92060145 12.11789481 0.9375 15.0625 C-2 17 -2 17 -5.625 17.125 C-9 16 -9 16 -10.9375 13.8125 C-12.43314811 9.85343147 -12.59266312 6.77798937 -11.25 2.75 C-8.20833008 -1.50833789 -4.78095077 -1.42411299 0 0 Z M-7.25 1.9375 C-9.58411027 4.68841567 -9.51485399 6.59989285 -9.3203125 10.12109375 C-9.09184625 12.1157145 -9.09184625 12.1157145 -7.8125 14.0625 C-5.95990264 15.21301575 -5.95990264 15.21301575 -3.4375 14.875 C-0.6738389 14.15610832 -0.6738389 14.15610832 1 11 C1.33957563 6.92509248 1.31332486 5.46998729 -1 2 C-3.60045802 0.78645293 -4.58712684 0.82796951 -7.25 1.9375 Z " fill="#101113" transform="translate(601,224)"/>
<path d="M0 0 C2 2 2 2 2.1953125 5.4765625 C2.18201493 6.85950968 2.15816232 8.24238654 2.125 9.625 C2.11597656 10.33140625 2.10695313 11.0378125 2.09765625 11.765625 C2.07407603 13.51056098 2.03820461 15.25532295 2 17 C1.01 16.67 0.02 16.34 -1 16 C-3.3406065 16.27769908 -5.67624308 16.60539977 -8 17 C-9.625 14.75 -9.625 14.75 -11 12 C-10.3041061 9.29374593 -9.47570067 8.32806943 -7.1875 6.75 C-4.67678635 5.88918389 -2.63651351 5.85352703 0 6 C-0.33 4.68 -0.66 3.36 -1 2 C-3.64 2.33 -6.28 2.66 -9 3 C-9.33 2.34 -9.66 1.68 -10 1 C-6.24391637 -0.82438348 -4.01050192 -1.30070333 0 0 Z M-8 10 C-7.67 11.65 -7.34 13.3 -7 15 C-3.39007621 14.34414811 -3.39007621 14.34414811 0 13 C0 11.35 0 9.7 0 8 C-3.76687864 8 -4.91190305 8.23537317 -8 10 Z " fill="#101112" transform="translate(926,224)"/>
<path d="M0 0 C2.875 1 2.875 1 4.75 2.5 C6.47216389 6.32703087 6.66643523 9.8845368 5.875 14 C3.8125 16.625 3.8125 16.625 0.875 18 C-2.75 18.0625 -2.75 18.0625 -6.125 17 C-8.32228495 14.73404989 -9.04974736 13.185229 -9.25 10.03125 C-9.02170307 6.20727638 -8.47047082 4.40469439 -5.9375 1.4375 C-3.125 0 -3.125 0 0 0 Z M-4.375 2.9375 C-6.70911027 5.68841567 -6.63985399 7.59989285 -6.4453125 11.12109375 C-6.21684625 13.1157145 -6.21684625 13.1157145 -4.9375 15.0625 C-3.08490264 16.21301575 -3.08490264 16.21301575 -0.5625 15.875 C2.2011611 15.15610832 2.2011611 15.15610832 3.875 12 C4.21457563 7.92509248 4.18832486 6.46998729 1.875 3 C-0.72545802 1.78645293 -1.71212684 1.82796951 -4.375 2.9375 Z " fill="#101112" transform="translate(984.125,223)"/>
<path d="M0 0 C1.53266582 3.06533164 1.10276471 6.26754272 1.0625 9.625 C1.05798828 10.33140625 1.05347656 11.0378125 1.04882812 11.765625 C1.03703875 13.51045275 1.01910324 15.255237 1 17 C0.01 16.67 -0.98 16.34 -2 16 C-3.175625 16.185625 -4.35125 16.37125 -5.5625 16.5625 C-6.696875 16.706875 -7.83125 16.85125 -9 17 C-11 15 -11 15 -11.125 11.875 C-11.08375 10.92625 -11.0425 9.9775 -11 9 C-7.27034861 6.96564469 -5.33094958 6 -1 6 C-1.33 5.01 -1.66 4.02 -2 3 C-5.28976808 1.90341064 -6.71303767 2.20046862 -10 3 C-9.67 2.01 -9.34 1.02 -9 0 C-5.49270578 -1.16909807 -3.55692677 -0.85056945 0 0 Z M-9 11 C-8.34 12.32 -7.68 13.64 -7 15 C-3.70924004 14.62095792 -3.70924004 14.62095792 -1 13 C-0.95936168 11.33382885 -0.957279 9.66611905 -1 8 C-5.26826873 8 -5.93882432 8.37613513 -9 11 Z " fill="#101112" transform="translate(366,224)"/>
<path d="M0 0 C2 2 2 2 2.1953125 5.4765625 C2.18201493 6.85950968 2.15816232 8.24238654 2.125 9.625 C2.11597656 10.33140625 2.10695313 11.0378125 2.09765625 11.765625 C2.07407603 13.51056098 2.03820461 15.25532295 2 17 C1.34 17 0.68 17 0 17 C-0.33 12.05 -0.66 7.1 -1 2 C-3.31 2.33 -5.62 2.66 -8 3 C-8 7.29 -8 11.58 -8 16 C-8.99 16 -9.98 16 -11 16 C-11 10.72 -11 5.44 -11 0 C-3.88235294 -1.18627451 -3.88235294 -1.18627451 0 0 Z " fill="#101315" transform="translate(383,224)"/>
<path d="M0 0 C2.42130331 3.63195496 2.21022785 5.38349348 2.125 9.6875 C2.10695313 10.86699219 2.08890625 12.04648438 2.0703125 13.26171875 C2.03550781 14.61716797 2.03550781 14.61716797 2 16 C1.01 16 0.02 16 -1 16 C-1 11.38 -1 6.76 -1 2 C-3.31 2.66 -5.62 3.32 -8 4 C-8.33 8.29 -8.66 12.58 -9 17 C-9.66 17 -10.32 17 -11 17 C-11 11.39 -11 5.78 -11 0 C-3.66666667 -1.22222222 -3.66666667 -1.22222222 0 0 Z " fill="#101213" transform="translate(944,224)"/>
<path d="M0 0 C5.61 0 11.22 0 17 0 C17 0.66 17 1.32 17 2 C14.69 2 12.38 2 10 2 C10 8.6 10 15.2 10 22 C9.01 22 8.02 22 7 22 C7 15.4 7 8.8 7 2 C4.69 2 2.38 2 0 2 C0 1.34 0 0.68 0 0 Z " fill="#101213" transform="translate(443,218)"/>
<path d="M0 0 C1 1 1 1 1.09765625 4.59765625 C1.0909822 6.08596867 1.07902183 7.57426432 1.0625 9.0625 C1.05798828 9.82111328 1.05347656 10.57972656 1.04882812 11.36132812 C1.0370068 13.24091871 1.01907078 15.12046899 1 17 C0.34 17 -0.32 17 -1 17 C-1.33 12.38 -1.66 7.76 -2 3 C-3.65 3 -5.3 3 -7 3 C-8.87824891 4.87824891 -8.39102397 8.03935276 -8.5625 10.5625 C-8.68818359 12.35880859 -8.68818359 12.35880859 -8.81640625 14.19140625 C-8.87699219 15.11824219 -8.93757812 16.04507813 -9 17 C-9.66 17 -10.32 17 -11 17 C-11 11.39 -11 5.78 -11 0 C-6.50428004 -0.89914399 -4.31285646 -0.98019465 0 0 Z " fill="#101112" transform="translate(576,224)"/>
<path d="M0 0 C1 1 1 1 1.09765625 4.59765625 C1.0909822 6.08596867 1.07902183 7.57426432 1.0625 9.0625 C1.05798828 9.82111328 1.05347656 10.57972656 1.04882812 11.36132812 C1.0370068 13.24091871 1.01907078 15.12046899 1 17 C0.34 17 -0.32 17 -1 17 C-1.33 12.38 -1.66 7.76 -2 3 C-3.65 3 -5.3 3 -7 3 C-8.87824891 4.87824891 -8.39102397 8.03935276 -8.5625 10.5625 C-8.68818359 12.35880859 -8.68818359 12.35880859 -8.81640625 14.19140625 C-8.87699219 15.11824219 -8.93757813 16.04507813 -9 17 C-9.66 17 -10.32 17 -11 17 C-11 11.39 -11 5.78 -11 0 C-6.50428004 -0.89914399 -4.31285646 -0.98019465 0 0 Z " fill="#101112" transform="translate(512,224)"/>
<path d="M0 0 C0.66 0 1.32 0 2 0 C2.33 4.29 2.66 8.58 3 13 C3.99 13.33 4.98 13.66 6 14 C6.99 13.34 7.98 12.68 9 12 C9.58481121 9.11404054 9.58481121 9.11404054 9.6875 5.875 C9.75324219 4.77929688 9.81898438 3.68359375 9.88671875 2.5546875 C9.92410156 1.71164063 9.96148438 0.86859375 10 0 C10.66 0 11.32 0 12 0 C12 5.61 12 11.22 12 17 C11.01 16.67 10.02 16.34 9 16 C7.824375 16.185625 6.64875 16.37125 5.4375 16.5625 C4.303125 16.706875 3.16875 16.85125 2 17 C0 15 0 15 -0.1953125 11.5234375 C-0.18201493 10.14049032 -0.15816232 8.75761346 -0.125 7.375 C-0.11597656 6.66859375 -0.10695313 5.9621875 -0.09765625 5.234375 C-0.07407603 3.48943902 -0.03820461 1.74467705 0 0 Z " fill="#101111" transform="translate(872,224)"/>
<path d="M0 0 C1.36125 0.37125 1.36125 0.37125 2.75 0.75 C2.75 1.74 2.75 2.73 2.75 3.75 C0.44 3.42 -1.87 3.09 -4.25 2.75 C-3.07255415 6.28233755 -2.29394359 6.61308075 0.8125 8.4375 C1.54597656 8.87449219 2.27945313 9.31148437 3.03515625 9.76171875 C3.60105469 10.08785156 4.16695312 10.41398438 4.75 10.75 C4 15.5 4 15.5 1.75 17.75 C-2.30261287 18.09490322 -3.79754176 18.05163882 -7.25 15.75 C-7.25 15.09 -7.25 14.43 -7.25 13.75 C-4.61 14.08 -1.97 14.41 0.75 14.75 C1.08 13.43 1.41 12.11 1.75 10.75 C0.80125 10.440625 -0.1475 10.13125 -1.125 9.8125 C-4.25 8.75 -4.25 8.75 -6.25 7.75 C-7.125 5.9375 -7.125 5.9375 -7.25 3.75 C-4.98696227 0.40070417 -4.09687473 -0.31514421 0 0 Z " fill="#101213" transform="translate(731.25,223.25)"/>
<path d="M0 0 C0.9075 0.226875 1.815 0.45375 2.75 0.6875 C2.42 1.6775 2.09 2.6675 1.75 3.6875 C1.13125 3.48125 0.5125 3.275 -0.125 3.0625 C-0.82625 2.93875 -1.5275 2.815 -2.25 2.6875 C-2.91 3.3475 -3.57 4.0075 -4.25 4.6875 C-4.25 5.3475 -4.25 6.0075 -4.25 6.6875 C-2.5484375 7.1515625 -2.5484375 7.1515625 -0.8125 7.625 C2.75 8.6875 2.75 8.6875 3.75 9.6875 C4 12.625 4 12.625 3.75 15.6875 C0.75 17.6875 0.75 17.6875 -2.8125 17.4375 C-6.25 16.6875 -6.25 16.6875 -8.25 14.6875 C-4.55581799 13.456106 -2.0443739 14.04317236 1.75 14.6875 C1.15466953 12.73843145 1.15466953 12.73843145 -0.25 10.6875 C-1.260625 10.213125 -2.27125 9.73875 -3.3125 9.25 C-6.25 7.6875 -6.25 7.6875 -7.125 5 C-7.16625 4.236875 -7.2075 3.47375 -7.25 2.6875 C-4.61280971 0.1517401 -3.74095095 -0.35970682 0 0 Z " fill="#101213" transform="translate(745.25,223.3125)"/>
<path d="M0 0 C0.66 0 1.32 0 2 0 C2.33 4.29 2.66 8.58 3 13 C4.32 13.33 5.64 13.66 7 14 C9.68092691 11.31907309 9.38670257 9.60832637 9.625 5.875 C9.69976563 4.77929688 9.77453125 3.68359375 9.8515625 2.5546875 C9.90054688 1.71164063 9.94953125 0.86859375 10 0 C10.66 0 11.32 0 12 0 C12 5.61 12 11.22 12 17 C11.01 16.67 10.02 16.34 9 16 C8.01 16.185625 7.02 16.37125 6 16.5625 C3 17 3 17 0 15 C-0.22137393 12.37302936 -0.28162025 9.99106036 -0.1875 7.375 C-0.17396484 6.66859375 -0.16042969 5.9621875 -0.14648438 5.234375 C-0.1111104 3.48925872 -0.05730221 1.74453392 0 0 Z " fill="#101011" transform="translate(663,224)"/>
<path d="M0 0 C0 0.99 0 1.98 0 3 C-0.763125 2.79375 -1.52625 2.5875 -2.3125 2.375 C-5.21885944 1.66608797 -5.21885944 1.66608797 -8 4 C-9.17784957 7.63170285 -8.94252722 10.33461636 -8 14 C-3.545 13.505 -3.545 13.505 1 13 C0.67 13.99 0.34 14.98 0 16 C-3.1875 16.8125 -3.1875 16.8125 -7 17 C-9.9375 15 -9.9375 15 -12 12 C-12.50951861 7.85106275 -12.54666957 4.43800392 -10 1 C-6.59593257 -1.55305057 -4.00267246 -0.90969829 0 0 Z " fill="#101213" transform="translate(619,224)"/>
<path d="M0 0 C0.928125 0.20625 1.85625 0.4125 2.8125 0.625 C3.1425 1.615 3.4725 2.605 3.8125 3.625 C3.049375 3.439375 2.28625 3.25375 1.5 3.0625 C-1.27717375 2.39680827 -1.27717375 2.39680827 -4.1875 3.625 C-5.69412097 6.63824195 -5.36520373 9.30786377 -5.1875 12.625 C-4.5275 13.285 -3.8675 13.945 -3.1875 14.625 C0.40929066 14.30173447 0.40929066 14.30173447 3.8125 13.625 C3.8125 14.615 3.8125 15.605 3.8125 16.625 C0.97166359 18.04541821 -1.04227278 17.93952272 -4.1875 17.625 C-7.41812308 15.44214657 -8.09517139 13.96353825 -9.125 10.1875 C-9.19504154 6.19513213 -8.65215254 4.70581567 -6.1875 1.625 C-3.1875 -0.375 -3.1875 -0.375 0 0 Z " fill="#101213" transform="translate(688.1875,223.375)"/>
<path d="M0 0 C0.33 0.99 0.66 1.98 1 3 C0.2575 2.7525 -0.485 2.505 -1.25 2.25 C-4.0771345 1.71185774 -4.0771345 1.71185774 -6.375 3.5 C-8.3744306 6.02933863 -8.3744306 6.02933863 -7.75 9.75 C-7.5025 10.8225 -7.255 11.895 -7 13 C-3.71303767 13.79953138 -2.28976808 14.09658936 1 13 C1 13.99 1 14.98 1 16 C-2.1875 16.8125 -2.1875 16.8125 -6 17 C-8.97580263 15.03723656 -10.66602158 13.60945793 -11.41015625 10.0234375 C-11.54889832 6.80220848 -11.21784035 4.40456066 -9.6875 1.5625 C-6.45255971 -1.43281508 -4.00941216 -0.97526242 0 0 Z " fill="#101213" transform="translate(705,224)"/>
<path d="M0 0 C0.66 0 1.32 0 2 0 C2 1.65 2 3.3 2 5 C3.65 5 5.3 5 7 5 C7 5.66 7 6.32 7 7 C5.35 7 3.7 7 2 7 C2.33 11.29 2.66 15.58 3 20 C4.32 19.67 5.64 19.34 7 19 C7 19.99 7 20.98 7 22 C4.625 22.125 4.625 22.125 2 22 C0 20 0 20 -0.1953125 16.9609375 C-0.16050781 15.18589844 -0.16050781 15.18589844 -0.125 13.375 C-0.10695313 12.18648437 -0.08890625 10.99796875 -0.0703125 9.7734375 C-0.04710937 8.85820312 -0.02390625 7.94296875 0 7 C-0.99 7 -1.98 7 -3 7 C-3 6.34 -3 5.68 -3 5 C-2.01 5 -1.02 5 0 5 C0 3.35 0 1.7 0 0 Z " fill="#101111" transform="translate(519,219)"/>
<path d="M0 0 C0.66 0 1.32 0 2 0 C2 1.65 2 3.3 2 5 C3.65 5 5.3 5 7 5 C7 5.66 7 6.32 7 7 C5.35 7 3.7 7 2 7 C2.33 11.29 2.66 15.58 3 20 C4.32 19.67 5.64 19.34 7 19 C7 19.99 7 20.98 7 22 C4.625 22.125 4.625 22.125 2 22 C0 20 0 20 -0.1953125 16.9609375 C-0.16050781 15.18589844 -0.16050781 15.18589844 -0.125 13.375 C-0.10695313 12.18648437 -0.08890625 10.99796875 -0.0703125 9.7734375 C-0.04710937 8.85820312 -0.02390625 7.94296875 0 7 C-0.99 6.67 -1.98 6.34 -3 6 C-2.01 5.67 -1.02 5.34 0 5 C0 3.35 0 1.7 0 0 Z " fill="#101111" transform="translate(816,219)"/>
<path d="M0 0 C0 0.66 0 1.32 0 2 C-1.65 2.66 -3.3 3.32 -5 4 C-5.33 7.96 -5.66 11.92 -6 16 C-6.99 16 -7.98 16 -9 16 C-9 10.72 -9 5.44 -9 0 C-3 -1 -3 -1 0 0 Z " fill="#101315" transform="translate(1003,224)"/>
<path d="M0 0 C0.66 0 1.32 0 2 0 C2.33 8.25 2.66 16.5 3 25 C2.01 25 1.02 25 0 25 C0 16.75 0 8.5 0 0 Z " fill="#101010" transform="translate(583,216)"/>
<path d="M0 0 C0.66 0 1.32 0 2 0 C2.33 8.25 2.66 16.5 3 25 C2.01 24.67 1.02 24.34 0 24 C0 16.08 0 8.16 0 0 Z " fill="#101010" transform="translate(477,216)"/>
<path d="M0 0 C0.66 0 1.32 0 2 0 C2 5.61 2 11.22 2 17 C1.34 17 0.68 17 0 17 C0 11.39 0 5.78 0 0 Z " fill="#101010" transform="translate(808,224)"/>
<path d="M0 0 C4.62 0 9.24 0 14 0 C14 0.66 14 1.32 14 2 C9.38 2 4.76 2 0 2 C0 1.34 0 0.68 0 0 Z " fill="#101010" transform="translate(758,231)"/>
<path d="M0 0 C1.98 0.495 1.98 0.495 4 1 C3.6875 3.875 3.6875 3.875 3 7 C2.01 7.66 1.02 8.32 0 9 C0 6 0 3 0 0 Z " fill="#101314" transform="translate(529,237)"/>
<path d="M0 0 C0.99 0.33 1.98 0.66 3 1 C2.67 1.99 2.34 2.98 2 4 C1.01 3.67 0.02 3.34 -1 3 C-0.67 2.01 -0.34 1.02 0 0 Z " fill="#101315" transform="translate(808,217)"/>
</svg>
